# AST/ASF file generated using VICON BodyLanguage
# -----------------------------------------------
:version 1.10
:name VICON
:units
  mass 1.0
  length 0.45
  angle deg
:documentation
   .ast/.asf automatically generated from VICON data using
   VICON BodyBuilder and BodyLanguage model FoxedUp or BRILLIANT.MOD
:root
   order TX TY TZ RX RY RZ
   axis XYZ
   position 0 0 0  
   orientation 0 0 0 
:bonedata
  begin
     id 1 
     name lhipjoint
     direction 0.558404 -0.748506 0.357664 
     length 2.4234 
     axis 0 0 0  XYZ
  end
  begin
     id 2 
     name lfemur
     direction 0.34202 -0.939693 0  
     length 7.14567  
     axis 0 0 20  XYZ
    dof rx ry rz
    limits (-160.0 20.0)
           (-70.0 70.0)
           (-60.0 70.0)
  end
  begin
     id 3 
     name ltibia
     direction 0.34202 -0.939693 0   
     length 8.13956   
     axis 0 0 20   XYZ
    dof rx
    limits (-10.0 170.0)
  end
  begin
     id 4 
     name lfoot
     direction 0.0791314 -0.217412 0.972867   
     length 2.00134   
     axis -90 7.62852e-016 20   XYZ
    dof rx rz
    limits (-45.0 90.0)
           (-70.0 20.0)
  end
  begin
     id 5 
     name ltoes
     direction 1.53547e-011 -4.21922e-011 1   
     length 1.00735   
     axis -90 7.62852e-016 20   XYZ
    dof rx
    limits (-90.0 20.0)
  end
  begin
     id 6 
     name rhipjoint
     direction -0.496392 -0.78327 0.374276   
     length 2.31584  
     axis 0 0 0  XYZ 
  end
  begin
     id 7 
     name rfemur
     direction -0.34202 -0.939693 0   
     length 7.47417   
     axis 0 0 -20   XYZ
    dof rx ry rz
    limits (-160.0 20.0)
           (-70.0 70.0)
           (-70.0 60.0)
  end
  begin
     id 8 
     name rtibia
     direction -0.34202 -0.939693 0   
     length 7.69071   
     axis 0 0 -20   XYZ
    dof rx
    limits (-10.0 170.0)
 end
 begin
     id 9 
     name rfoot
     direction -0.103069 -0.28318 0.953512   
     length 2.16135  
     axis -90 -7.62852e-016 -20   XYZ
    dof rx rz
    limits (-45.0 90.0)
           (-20.0 70.0)
  end
  begin
     id 10 
     name rtoes
     direction -1.53581e-011 -4.21904e-011 1   
     length 1.07867   
     axis -90 -7.62852e-016 -20   XYZ
    dof rx
    limits (-90.0 20.0)
  end
  begin
     id 11 
     name lowerback
     direction -0.0258961 0.994776 -0.0987407   
     length 2.19412   
     axis 0 0 0   XYZ
    dof rx ry rz
    limits (-20.0 45.0)
           (-30.0 30.0)
           (-30.0 30.0)
  end
  begin
     id 12 
     name upperback
     direction 0.0402454 0.999185 0.00320666   
     length 2.18445   
     axis 0 0 0   XYZ
    dof rx ry rz
    limits (-20.0 45.0)
           (-30.0 30.0)
           (-30.0 30.0)
  end
  begin
     id 13 
     name thorax
     direction 0.0519376 0.997415 0.0496558   
     length 2.21487   
     axis 0 0 0   XYZ
    dof rx ry rz
    limits (-20.0 45.0)
           (-30.0 30.0)
           (-30.0 30.0)
  end
  begin
     id 14 
     name lowerneck
     direction -0.0921276 0.983211 0.157506   
     length 1.61201   
     axis 0 0 0   XYZ
    dof rx ry rz
    limits (-20.0 45.0)
           (-30.0 30.0)
           (-30.0 30.0)
  end
  begin
     id 15 
     name upperneck
     direction 0.0820814 0.98162 -0.172292   
     length 1.65275   
     axis 0 0 0   XYZ
    dof rx ry rz
    limits (-20.0 45.0)
           (-30.0 30.0)
           (-30.0 30.0)
  end
  begin
     id 16
     name head
     direction 0.0336554 0.996413 -0.0776455  
     length 1.66415  
     axis 0 0 0   XYZ
    dof rx ry rz
    limits (-20.0 45.0)
           (-30.0 30.0)
           (-30.0 30.0)
  end
  begin
     id 17 
     name lclavicle
     direction 0.94696 0.284418 -0.149576  
     length 3.41447  
     axis 0 0 0   XYZ
    dof ry rz
    limits (-20.0 10.0)
           (0.0 20.0)
  end
  begin
     id 18 
     name lhumerus
     direction 1 -0.000130264 -9.81312e-005   
     length 5.19964   
     axis 180 -30 -90   XYZ
    dof rx ry rz
    limits (-60.0 90.0)
           (-90.0 90.0)
           (-90.0 90.0)
  end
  begin
     id 19
     name lradius
     direction 1 -4.48961e-011 1.43854e-026   
     length 3.32189   
     axis 180 -30 -90   XYZ
    dof rx
    limits (-10.0 170.0)
  end
  begin
     id 20
     name lwrist
     direction 1 -4.48958e-011 3.1502e-026   
     length 1.66095   
     axis -1.97692e-014 90 90   XYZ
    dof ry
    limits (-180.0 0.0)
 end
  begin
     id 21 
     name lhand
     direction 1 -4.48927e-011 6.3004e-026   
     length 0.645616   
     axis -4.02019e-014 90 90   XYZ
    dof rx rz
    limits (-90.0 90.0)
           (-45.0 45.0)
  end
  begin
     id 22 
     name lfingers
     direction 1 -4.4904e-011 1.26008e-025   
     length 0.520512   
     axis -8.04039e-014 90 90   XYZ
    dof rx
    limits (0.0 90.0)
  end
  begin
     id 23
     name lthumb
     direction 0.707107 -6.34947e-011 0.707107   
     length 0.747354   
     axis -90 45 2.85299e-015   XYZ
    dof rx rz
    limits (-45.0 45.0)
           (-45.0 45.0)
  end
  begin
     id 24 
     name rclavicle
     direction -0.909391 0.383475 -0.161107   
     length 3.25176  
     axis 0 0 0   XYZ 
    dof ry rz
    limits (-10.0 20.0)
           (-20.0 0.0)
  end
  begin
     id 25 
     name rhumerus
     direction -1 -4.48965e-011 -1.81384e-027  
     length 5.6595   
     axis 180 30 90   XYZ
    dof rx ry rz
    limits (-90.0 60.0)
           (-90.0 90.0)
           (-90.0 90.0)
  end
  begin
     id 26 
     name rradius
     direction -1 -4.48996e-011 -8.09397e-027   
     length 3.37604   
     axis 180 30 90   XYZ
    dof rx
    limits (-10.0 170.0)
  end
  begin
     id 27 
     name rwrist
     direction -1 -4.48927e-011 -1.56669e-026   
     length 1.68802   
     axis 1.21142e-014 -90 -90   XYZ
    dof ry
    limits (-180.0 0.0)
  end
  begin
     id 28
     name rhand
     direction -1 -4.48912e-011 -3.13339e-026   
     length 0.824702   
     axis 1.99937e-014 -90 -90   XYZ
    dof rx rz
    limits (-90.0 90.0)
           (-45.0 45.0)
  end
  begin
     id 29
     name rfingers
     direction -1 -4.49011e-011 -6.26677e-026   
     length 0.664896   
     axis 3.99874e-014 -90 -90   XYZ
    dof rx
    limits (0.0 90.0)
  end
  begin
     id 30
     name rthumb
     direction -0.707107 -6.34931e-011 0.707107   
     length 0.954662   
     axis -90 -45 -2.85299e-015   XYZ
    dof rx rz
    limits (-45.0 45.0)
           (-45.0 45.0)
  end
:hierarchy
  begin
    root lhipjoint rhipjoint lowerback
    lhipjoint lfemur
    lfemur ltibia
    ltibia lfoot
    lfoot ltoes
    rhipjoint rfemur
    rfemur rtibia
    rtibia rfoot
    rfoot rtoes
    lowerback upperback
    upperback thorax
    thorax lowerneck lclavicle rclavicle
    lowerneck upperneck
    upperneck head
    lclavicle lhumerus
    lhumerus lradius
    lradius lwrist
    lwrist lhand lthumb
    lhand lfingers
    rclavicle rhumerus
    rhumerus rradius
    rradius rwrist
    rwrist rhand rthumb
    rhand rfingers
  end

#!OML:ASF F:\VICON\USERDATA\INSTALL\rory3\rory3.ASF
:FULLY-SPECIFIED
:DEGREES
376
root 9.53162 17.8406 -14.7805 3.85407 -16.5514 -3.12265
lowerback 4.06864 2.8228 -0.979729
upperback -0.120746 3.79208 3.01531
thorax -2.67276 1.92552 3.4107
lowerneck -11.0019 -6.29809 -14.4116
upperneck 24.2002 -9.2631 13.0445
head 10.89 -4.22705 5.97634
rclavicle 6.55492e-014 -1.78906e-014
rhumerus -26.4447 -16.9163 -73.3995
rradius 37.2262
rwrist -12.918
rhand -9.49608 17.1359
rfingers 7.12502
rthumb 16.4689 -12.1851
lclavicle 6.55492e-014 -1.78906e-014
lhumerus -31.2623 24.6518 74.5499
lradius 24.6957
lwrist -17.4146
lhand 0.361568 30.5479
lfingers 7.12502
lthumb 25.9366 58.7985
rfemur -13.4517 -2.40878 15.8988
rtibia 35.1805
rfoot -19.0356 -15.1649
rtoes 11.596
lfemur -16.1635 -6.27981 -16.1215
ltibia 36.9826
lfoot -20.2064 2.19409
ltoes -1.70178
377
root 9.55417 17.8403 -14.7875 3.97246 -17.2372 -3.30938
lowerback 4.06865 2.81531 -0.892027
upperback -0.102843 3.78819 3.12184
thorax -2.65572 1.92269 3.47259
lowerneck -11.1761 -6.26146 -14.7045
upperneck 24.8336 -9.29413 13.3988
head 11.2019 -4.22982 6.18469
rclavicle 1.80397e-014 -6.36111e-015
rhumerus -26.4659 -17.5078 -73.2521
rradius 36.7275
rwrist -12.5269
rhand -9.47343 17.2839
rfingers 7.12502
rthumb 16.4907 -12.0352
lclavicle 1.80397e-014 -6.36111e-015
lhumerus -31.1181 24.5648 74.9349
lradius 24.6959
lwrist -17.7698
lhand 0.640633 31.5868
lfingers 7.12502
lthumb 26.2038 59.7979
rfemur -13.759 -1.90933 16.0174
rtibia 35.1588
rfoot -18.7333 -15.0848
rtoes 11.2255
lfemur -16.1669 -5.96782 -15.9989
ltibia 36.974
lfoot -20.2781 2.52104
ltoes -1.91951
378
root 9.58119 17.8385 -14.7934 3.95632 -17.7686 -3.17877
lowerback 4.16329 2.77332 -1.01321
upperback -0.0457966 3.72493 3.10477
thorax -2.65222 1.89186 3.52428
lowerneck -11.3132 -6.24607 -14.7153
upperneck 25.1807 -9.31747 13.4821
head 11.37 -4.2306 6.22913
rclavicle -3.77194e-014 -7.95139e-016
rhumerus -26.5519 -17.84 -73.2114
rradius 36.5164
rwrist -12.4926
rhand -9.58293 16.9998
rfingers 7.12502
rthumb 16.3852 -12.3281
lclavicle -3.77194e-014 -7.95139e-016
lhumerus -30.89 24.5243 75.2702
lradius 24.6622
lwrist -17.7669
lhand 0.536852 32.1952
lfingers 7.12502
lthumb 26.1045 60.4211
rfemur -13.9211 -1.72357 15.7041
rtibia 35.1479
rfoot -18.7428 -14.4823
rtoes 12.747
lfemur -16.139 -5.74601 -16.248
ltibia 36.9439
lfoot -20.2885 2.72046
ltoes -1.6588
379
root 9.60705 17.837 -14.8025 3.99805 -18.3231 -3.02183
lowerback 4.21914 2.6986 -1.22162
upperback -0.00430969 3.61347 3.07146
thorax -2.64364 1.83819 3.61324
lowerneck -11.4048 -6.18121 -14.4448
upperneck 25.3936 -9.26319 13.3467
head 11.437 -4.19297 6.14433
rclavicle -6.53008e-014 -2.82274e-014
rhumerus -26.6476 -17.8536 -73.302
rradius 36.4142
rwrist -12.7514
rhand -9.80227 16.7169
rfingers 7.12502
rthumb 16.174 -12.6283
lclavicle -6.53008e-014 -2.82274e-014
lhumerus -30.7221 24.1961 75.5619
lradius 24.6866
lwrist -17.3053
lhand 0.485825 32.1596
lfingers 7.12502
lthumb 26.0556 60.3927
rfemur -14.1674 -1.49622 15.4012
rtibia 35.1337
rfoot -18.6282 -14.0058
rtoes 13.442
lfemur -16.2047 -5.60462 -16.5104
ltibia 36.9233
lfoot -20.2581 3.01364
ltoes -1.75621
380
root 9.63318 17.8369 -14.8093 4.11671 -19.0775 -3.04806
lowerback 4.2335 2.6445 -1.28137
upperback 6.98454e-005 3.53878 3.09973
thorax -2.64716 1.80181 3.681
lowerneck -11.228 -6.13358 -14.3955
upperneck 25.5539 -9.23951 13.2959
head 11.452 -4.19243 6.12897
rclavicle 4.44781e-014 2.66371e-014
rhumerus -26.672 -17.9416 -73.3532
rradius 36.064
rwrist -12.7468
rhand -9.91766 16.7455
rfingers 7.12502
rthumb 16.0629 -12.6087
lclavicle 4.44781e-014 2.66371e-014
lhumerus -30.7707 23.5589 75.9046
lradius 24.9583
lwrist -16.6198
lhand 0.355348 31.8934
lfingers 7.12502
lthumb 25.9307 60.1448
rfemur -14.529 -1.25353 15.308
rtibia 35.1488
rfoot -18.3106 -13.7054
rtoes 12.3156
lfemur -16.254 -5.3151 -16.5971
ltibia 36.9111
lfoot -20.2898 3.32766
ltoes -2.16304
381
root 9.6607 17.8358 -14.8164 4.16997 -19.8222 -3.00817
lowerback 4.30701 2.59015 -1.37234
upperback 0.0147032 3.46209 3.12973
thorax -2.67489 1.76497 3.76596
lowerneck -10.9903 -6.11993 -14.5499
upperneck 25.7006 -9.24642 13.3167
head 11.4703 -4.22052 6.17351
rclavicle 3.43401e-014 5.56597e-015
rhumerus -26.6806 -18.0445 -73.3605
rradius 35.7376
rwrist -12.5546
rhand -9.97409 16.6337
rfingers 7.12502
rthumb 16.0086 -12.7249
lclavicle 3.43401e-014 5.56597e-015
lhumerus -30.8442 23.1547 76.2422
lradius 25.2409
lwrist -16.0849
lhand 0.155253 31.7988
lfingers 7.12502
lthumb 25.7391 60.0781
rfemur -14.8516 -0.99107 15.1336
rtibia 35.1854
rfoot -18.1017 -13.3507
rtoes 12.1623
lfemur -16.2861 -5.03156 -16.7485
ltibia 36.9276
lfoot -20.3445 3.51666
ltoes -1.57379
